<?xml version="1.0" encoding="utf-8"?>
<!-- Generator: Adobe Illustrator 25.2.0, SVG Export Plug-In . SVG Version: 6.00 Build 0)  -->
<svg version="1.1" id="Layer_1" xmlns="http://www.w3.org/2000/svg" xmlns:xlink="http://www.w3.org/1999/xlink" x="0px" y="0px"
	 viewBox="0 0 63 20" style="enable-background:new 0 0 63 20;" xml:space="preserve">
<style type="text/css">
	.st0{fill:#E1E31B;}
</style>
<g>
	<path class="st0" d="M13.6,9.3L11,16.2L8.1,9.4v6.4H5.5V4.6h4.2L11.5,9l1.9-4.5h3.8v11.2h-3.6V9.3z"/>
	<path class="st0" d="M23.9,16.1c-2.2,0-3.6-0.4-4.2-1.3S18.7,13,18.7,12V4.6h3.5v7.3c0,0.4,0,0.8,0.1,1.1s0.3,0.5,0.6,0.7
		s0.7,0.3,1.3,0.3c0.8,0,1.3-0.2,1.5-0.6s0.3-0.9,0.3-1.6V4.6h2.6v7.3C28.7,14.7,27.1,16.1,23.9,16.1z"/>
	<path class="st0" d="M33.5,7.7c0,0.3,0.2,0.4,0.5,0.5s0.9,0.2,1.7,0.3s1.4,0.2,1.9,0.3c1.6,0.5,2.5,1.5,2.5,3c0,1-0.2,1.8-0.6,2.4
		s-1,1-1.6,1.3s-1.5,0.4-2.4,0.5c-0.2,0-0.4,0-0.8,0c-0.8,0-1.5,0-2.1-0.1c-0.6-0.1-1.1-0.2-1.5-0.3s-0.6-0.2-0.6-0.2l-0.5-2.8
		c0.3,0.2,0.7,0.5,1.4,0.8c0.7,0.3,1.5,0.5,2.4,0.5c1,0,1.7-0.1,2.1-0.3s0.6-0.6,0.6-1.1c0-0.5-0.2-0.8-0.6-1s-0.8-0.3-1.3-0.4
		s-1.2-0.1-2-0.2c-0.9-0.1-1.5-0.4-2-0.8S30,9,30,8.1c0-0.1,0-0.4,0-0.7c0.1-1,0.7-1.8,1.8-2.4c0.6-0.3,1.5-0.5,2.6-0.6
		c0.2,0,0.5,0,0.9,0c1,0,1.8,0.1,2.5,0.2s1.1,0.3,1.3,0.4l0.7,2.3c0,0-0.2-0.1-0.6-0.2s-0.9-0.3-1.5-0.4s-1.2-0.2-2-0.2
		C34.3,6.4,33.5,6.8,33.5,7.7z"/>
	<path class="st0" d="M45.1,4.6v11.2h-3.5V4.6H45.1z"/>
	<path class="st0" d="M54.3,15.7c0.4,0.5,0.6,0.9,0.8,1.1s0.3,0.4,0.3,0.5h-2.7l-0.6-1.1h-0.5c-1.3,0-2.3-0.2-3.1-0.6
		s-1.4-1.1-1.8-2s-0.6-2-0.6-3.4c0-2,0.5-3.4,1.4-4.4s2.3-1.5,4.1-1.5c1.4,0,2.5,0.2,3.3,0.7s1.4,1.1,1.8,2s0.5,2,0.5,3.3
		c0,1.5-0.2,2.7-0.7,3.6S55.3,15.3,54.3,15.7z M50.9,13.9l-0.5-1h2c0.1,0.1,0.2,0.2,0.2,0.3s0.2,0.2,0.2,0.3
		c0.4-0.3,0.6-0.7,0.7-1.3s0.2-1.3,0.2-2.2c0-0.8,0-1.4-0.1-2s-0.2-1-0.5-1.4s-0.8-0.6-1.4-0.6c-0.9,0-1.5,0.3-1.7,1
		s-0.4,1.6-0.4,2.8c0,0.8,0.1,1.3,0.1,1.8s0.2,0.9,0.4,1.3S50.5,13.8,50.9,13.9z"/>
</g>
</svg>
